HIERARCHY
ROOT Hips
{
    OFFSET 0.000000 0.000000 0.000000
    CHANNELS 6 Xposition Yposition Zposition Zrotation Xrotation Yrotation
    JOINT Spine
    {
        OFFSET -0.000000 8.834163 0.000000
        CHANNELS 3 Zrotation Xrotation Yrotation
        JOINT Spine1
        {
            OFFSET -0.000000 17.855492 0.000000
            CHANNELS 3 Zrotation Xrotation Yrotation
            JOINT Neck
            {
                OFFSET -0.000000 17.782162 1.616560
                CHANNELS 3 Zrotation Xrotation Yrotation
                JOINT Head
                {
                    OFFSET -0.000000 15.082717 -2.154674
                    CHANNELS 3 Zrotation Xrotation Yrotation
                    End Site
                    {
                        OFFSET -0.000000 26.933422 0.000000
                    }
                }
            }
            JOINT LeftShoulder
            {
                OFFSET 4.280775 15.989452 -0.632416
                CHANNELS 3 Zrotation Xrotation Yrotation
                JOINT LeftArm
                {
                    OFFSET 11.735877 0.000000 0.000000
                    CHANNELS 3 Zrotation Xrotation Yrotation
                    JOINT LeftForeArm
                    {
                        OFFSET 33.149986 0.000000 0.000000
                        CHANNELS 3 Zrotation Xrotation Yrotation
                        JOINT LeftHand
                        {
                            OFFSET 28.572401 0.000000 0.000000
                            CHANNELS 3 Zrotation Xrotation Yrotation
                            End Site
                            {
                                OFFSET 16.160055 0.000000 0.000000
                            }
                        }
                    }
                }
            }
            JOINT RightShoulder
            {
                OFFSET -4.290631 15.989452 -0.632416
                CHANNELS 3 Zrotation Xrotation Yrotation
                JOINT RightArm
                {
                    OFFSET -11.735877 0.000000 0.000000
                    CHANNELS 3 Zrotation Xrotation Yrotation
                    JOINT RightForeArm
                    {
                        OFFSET -33.149986 0.000000 0.000000
                        CHANNELS 3 Zrotation Xrotation Yrotation
                        JOINT RightHand
                        {
                            OFFSET -28.572401 0.000000 0.000000
                            CHANNELS 3 Zrotation Xrotation Yrotation
                            End Site
                            {
                                OFFSET -16.160055 0.000000 0.000000
                            }
                        }
                    }
                }
            }
        }
    }
    JOINT LeftUpLeg
    {
        OFFSET 10.773369 0.000000 0.000000
        CHANNELS 3 Zrotation Xrotation Yrotation
        JOINT LeftLeg
        {
            OFFSET -0.000000 -54.062664 0.000000
            CHANNELS 3 Zrotation Xrotation Yrotation
            JOINT LeftFoot
            {
                OFFSET -0.000000 -48.941059 0.000000
                CHANNELS 3 Zrotation Xrotation Yrotation
                JOINT LeftToeBase
                {
                    OFFSET -0.000000 -7.002690 16.160055
                    CHANNELS 3 Zrotation Xrotation Yrotation
                    End Site
                    {
                        OFFSET -0.000000 0.000000 4.309348
                    }
                }
            }
        }
    }
    JOINT RightUpLeg
    {
        OFFSET -10.773369 0.000000 0.000000
        CHANNELS 3 Zrotation Xrotation Yrotation
        JOINT RightLeg
        {
            OFFSET -0.000000 -54.062664 0.000000
            CHANNELS 3 Zrotation Xrotation Yrotation
            JOINT RightFoot
            {
                OFFSET -0.000000 -48.941059 0.000000
                CHANNELS 3 Zrotation Xrotation Yrotation
                JOINT RightToeBase
                {
                    OFFSET -0.000000 -7.002690 16.160055
                    CHANNELS 3 Zrotation Xrotation Yrotation
                    End Site
                    {
                        OFFSET -0.000000 0.000000 4.309348
                    }
                }
            }
        }
    }
}
MOTION
Frames:    13
Frame Time:    0.008333
59.939171    184.871536    -13.990289    -0.323440    -3.429248    -85.722336    -6.970650    -19.886143    -4.768684    4.860009    6.352185    -3.815102    6.411801    41.207966    7.761926    -15.685452    -16.645292    5.275523    17.094404    -3.498324    6.306638    -11.925556    4.590271    -8.223867    -0.078603    -7.155429    1.810631    3.562618    -7.170061    -0.514035    -13.558280    -2.646889    11.725077    4.504920    -2.934800    7.424097    -1.628819    -1.492678    -5.495519    -8.352789    -1.517598    -0.729818    -2.134150    6.125239    -1.851979    0.724397    5.941047    4.248137    -3.083530    -10.397515    9.712120    0.000000    0.000000    0.000000    -5.922438    7.664481    -2.775613    -1.757198    3.392939    5.590109    1.831173    -13.048304    -22.446783    0.000000    0.000000    0.000000    
59.945618    184.864777    -13.993786    -0.321620    -3.409752    -85.728622    -6.947141    -19.871096    -4.758027    4.847300    6.353524    -3.808866    6.389198    41.218285    7.775088    -15.675149    -16.688997    5.281384    17.109221    -3.498335    6.313340    -11.927366    4.586197    -8.224111    -0.046972    -7.289516    1.797648    3.610507    -7.305060    -0.520470    -13.547343    -2.664739    11.737859    4.507119    -2.904991    7.413737    -1.733234    -1.256572    -5.530971    -7.752071    -1.289709    -0.746964    -2.119370    6.139143    -1.841734    0.737256    5.908611    4.243815    -3.065826    -10.417220    9.711418    0.000000    0.000000    0.000000    -5.904701    7.659954    -2.797706    -1.757735    3.384638    5.601242    1.834284    -13.049484    -22.425583    0.000000    0.000000    0.000000    
59.947426    184.860397    -13.999409    -0.319553    -3.391610    -85.754333    -6.932690    -19.867294    -4.743996    4.860116    6.357272    -3.798477    6.388784    41.194633    7.772997    -15.708714    -16.646379    5.273409    17.106852    -3.497404    6.324494    -11.931156    4.580163    -8.221786    -0.055046    -7.192626    1.758325    3.623065    -7.206787    -0.477819    -13.564582    -2.652193    11.750690    4.518007    -2.948259    7.434991    -1.740791    -1.245339    -5.558997    -7.702363    -1.282226    -0.708544    -2.101753    6.164837    -1.861492    0.736725    5.856021    4.286122    -3.052553    -10.412581    9.708595    0.000000    0.000000    0.000000    -5.893683    7.653671    -2.762363    -1.744801    3.382245    5.628782    1.808196    -13.054074    -22.458315    0.000000    0.000000    0.000000    
59.956444    184.858841    -14.004129    -0.299612    -3.383021    -85.761780    -6.923921    -19.864519    -4.743204    4.846135    6.340265    -3.797914    6.371034    41.203606    7.796889    -15.710443    -16.649290    5.293609    17.118179    -3.492202    6.351238    -11.924019    4.582959    -8.233065    -0.017073    -7.339067    1.753826    3.615459    -7.354734    -0.508549    -13.481140    -2.713007    11.726842    4.450739    -2.832444    7.496938    -1.751997    -1.270153    -5.544750    -7.658951    -1.306002    -0.732783    -2.094579    6.165235    -1.925025    0.736099    5.810041    4.344254    -3.049081    -10.401997    9.721801    0.000000    0.000000    0.000000    -5.899807    7.579822    -3.237716    -1.747313    3.486880    6.271959    1.730246    -13.113349    -22.620903    0.000000    0.000000    0.000000    
59.959400    184.857590    -14.010721    -0.283266    -3.371666    -85.782257    -6.919191    -19.872164    -4.730026    4.851242    6.339074    -3.785318    6.089866    41.544003    7.987228    -15.532041    -17.257137    5.414936    17.122961    -3.497916    6.350294    -11.930201    4.629390    -8.211583    -0.025431    -7.231372    1.688791    3.685570    -7.245332    -0.448940    -13.486828    -2.716799    11.725459    4.461863    -2.837997    7.510310    -1.759733    -1.284743    -5.531942    -7.639322    -1.319999    -0.746110    -2.083097    6.173549    -1.972643    0.731908    5.765699    4.385397    -3.043233    -10.400061    9.743336    0.000000    0.000000    0.000000    -5.879635    7.610495    -2.781297    -1.735962    3.373159    5.630863    1.798451    -13.046247    -22.414680    0.000000    0.000000    0.000000    
59.959827    184.858566    -14.017570    -0.266575    -3.362439    -85.793053    -6.918987    -19.889795    -4.731920    4.851223    6.344904    -3.786403    5.822943    41.810574    8.169041    -15.353275    -17.747766    5.541225    17.111736    -3.513796    6.371087    -11.901670    4.649575    -8.211134    -0.030222    -7.231246    1.664207    3.706031    -7.244715    -0.433303    -13.483383    -2.716720    11.750944    4.459744    -2.783893    7.501531    -1.758282    -1.325467    -5.491944    -7.672026    -1.360134    -0.740393    -2.063821    6.159801    -2.169838    0.672355    5.764255    4.626450    -3.012442    -10.406014    9.754756    0.000000    0.000000    0.000000    -5.878803    7.549818    -3.165128    -1.744729    3.464939    6.208771    1.757268    -13.103269    -22.593687    0.000000    0.000000    0.000000    
59.965115    184.860962    -14.025040    -0.243498    -3.350869    -85.807823    -6.918575    -19.895664    -4.727082    4.852584    6.316713    -3.780159    5.643584    42.065742    8.299002    -15.248610    -18.170132    5.622558    17.124466    -3.491832    6.376959    -11.915580    4.638073    -8.217377    -0.022138    -7.230744    1.654176    3.757665    -7.244272    -0.425424    -13.471203    -2.705570    11.761554    4.455759    -2.774086    7.510960    -1.754827    -1.321441    -5.465985    -7.659258    -1.356684    -0.725451    -2.076150    6.179233    -2.044565    0.757294    5.670286    4.499957    -3.047918    -10.359869    9.732553    0.000000    0.000000    0.000000    -5.865903    7.518239    -3.155648    -1.745327    3.474025    6.229610    1.766297    -13.103946    -22.613409    0.000000    0.000000    0.000000    
59.965683    184.862061    -14.034346    -0.219139    -3.338822    -85.819168    -6.919939    -19.920708    -4.729872    4.858012    6.314105    -3.781327    6.325588    41.215820    7.838852    -15.734650    -16.541447    5.334078    17.120821    -3.505434    6.385577    -11.902636    4.684888    -8.198553    -0.019370    -7.241304    1.627439    3.773621    -7.255298    -0.436389    -13.497408    -2.678835    11.754783    4.480128    -2.736611    7.552717    -1.835627    -1.570194    -5.411786    -7.683978    -1.603430    -0.797434    -2.069468    6.185254    -2.088447    0.749987    5.609549    4.603306    -3.033882    -10.339532    9.725624    0.000000    0.000000    0.000000    -5.852123    7.494171    -3.128083    -1.740743    3.467557    6.243342    1.742578    -13.093200    -22.651108    0.000000    0.000000    0.000000    
59.964859    184.865662    -14.042679    -0.206550    -3.331939    -85.832886    -6.919068    -19.926157    -4.730054    4.846338    6.296155    -3.779895    6.313575    41.216946    7.838602    -15.718247    -16.496201    5.341502    17.134792    -3.494411    6.404308    -11.900801    4.676872    -8.209168    -0.032863    -7.218421    1.616743    3.767002    -7.232445    -0.443792    -13.499745    -2.663930    11.796273    4.496290    -2.687394    7.525353    -1.838630    -1.589804    -5.352629    -7.676520    -1.623307    -0.781978    -2.066935    6.208692    -2.146066    0.759416    5.539293    4.674706    -3.042276    -10.302746    9.723773    0.000000    0.000000    0.000000    -5.835907    7.486422    -3.101829    -1.751167    3.447572    6.188268    1.766312    -13.080877    -22.617159    0.000000    0.000000    0.000000    
59.962822    184.869690    -14.053997    -0.200703    -3.317192    -85.852119    -6.910303    -19.928289    -4.728463    4.849158    6.285015    -3.779402    6.300549    41.221153    7.850332    -15.739523    -16.462025    5.349176    17.125839    -3.496571    6.438981    -11.887624    4.709464    -8.220917    -0.022049    -7.257005    1.595178    3.740953    -7.271515    -0.457098    -13.536527    -2.640648    11.798208    4.532247    -2.678504    7.559934    -1.755512    -1.368741    -5.344057    -7.672372    -1.401700    -0.730576    -2.062564    6.231168    -2.203316    0.784165    5.486871    4.730358    -3.070026    -10.278672    9.748967    0.000000    0.000000    0.000000    -5.812245    7.483997    -3.060057    -1.760256    3.427444    6.156553    1.772043    -13.051125    -22.606575    0.000000    0.000000    0.000000    
59.963131    184.873978    -14.063348    -0.190357    -3.304140    -85.864952    -6.903899    -19.926262    -4.730691    4.836502    6.257602    -3.781005    6.270062    41.240150    7.885977    -15.702113    -16.448290    5.392426    17.148495    -3.489810    6.460568    -11.897747    4.697582    -8.224978    -0.018788    -7.253860    1.596142    3.734529    -7.269331    -0.485916    -13.527851    -2.632427    11.817820    4.541856    -2.609883    7.568018    -1.763418    -1.381295    -5.292522    -7.682149    -1.413542    -0.733840    -2.054332    6.252474    -2.268200    0.794834    5.423759    4.788477    -3.060037    -10.245439    9.767886    0.000000    0.000000    0.000000    -5.795054    7.476009    -3.034873    -1.761127    3.414290    6.154353    1.777083    -13.032759    -22.613785    0.000000    0.000000    0.000000    
59.963238    184.877594    -14.072469    -0.168797    -3.292071    -85.888786    -6.890778    -19.951715    -4.725447    4.818977    6.256366    -3.775500    5.990514    41.589634    8.083873    -15.513643    -17.040432    5.526904    17.160191    -3.484519    6.481450    -11.897873    4.681108    -8.232141    -0.008433    -7.288013    1.588122    3.615231    -7.304796    -0.539540    -13.519994    -2.631062    11.821520    4.547348    -2.546549    7.584820    -1.769799    -1.397463    -5.250098    -7.688910    -1.429318    -0.734054    -2.051097    6.266174    -2.340599    0.807198    5.353064    4.890825    -3.080482    -10.217309    9.768621    0.000000    0.000000    0.000000    -5.778794    7.454345    -3.001616    -1.764087    3.403189    6.155182    1.764665    -13.014243    -22.633467    0.000000    0.000000    0.000000    
59.960945    184.881516    -14.082733    -0.167990    -3.272874    -85.909798    -6.883303    -19.943155    -4.720137    4.831883    6.230705    -3.771660    5.716919    41.850754    8.263668    -15.316765    -17.497295    5.657964    17.155457    -3.480109    6.489689    -11.904314    4.637861    -8.233852    -0.006882    -7.269281    1.596314    3.661377    -7.287086    -0.564120    -13.540703    -2.624275    11.839779    4.564180    -2.495438    7.577189    -1.779308    -1.424508    -5.200870    -7.686490    -1.455953    -0.735061    -2.035013    6.303980    -2.406204    0.816080    5.281318    4.952352    -3.077610    -10.187141    9.792057    0.000000    0.000000    0.000000    -5.753570    7.453778    -2.987468    -1.769190    3.387372    6.167551    1.782430    -12.990170    -22.636265    0.000000    0.000000    0.000000    
